# Blender v2.78 (sub 0) OBJ File: ''
# www.blender.org
mtllib Models/Track/track.mtl
o Plane
v -15.398883 18.868204 0.009398
v -15.589573 18.868204 0.500000
v -15.780261 18.868204 -0.280962
v -15.129138 9.267242 0.009398
v -15.319828 9.267242 0.500000
v -15.510516 9.267242 -0.280962
v -3.274150 13.875736 0.009398
v -3.128971 13.875736 0.500000
v -2.889433 13.818301 -0.280962
v -3.274150 5.615301 0.009398
v -3.128971 5.615301 0.500000
v -2.781947 5.593147 -0.280962
v -16.061049 5.930141 0.009398
v -16.251740 5.930141 0.500000
v -16.442425 5.930141 -0.280962
v -3.983659 2.817940 0.009398
v -3.838480 2.817940 0.500000
v -3.580070 2.731787 -0.280962
v -18.095337 1.695006 0.009398
v -18.286026 1.695006 0.500000
v -18.476713 1.695006 -0.280962
v -5.532462 -0.732208 0.009398
v -5.387282 -0.732207 0.500000
v -5.119027 -0.887283 -0.280962
v -21.646881 -3.738569 0.009398
v -21.837568 -3.738569 0.500000
v -22.028254 -3.738569 -0.280962
v -8.236424 -5.286962 0.009398
v -8.091246 -5.286961 0.500000
v -7.832836 -5.375576 -0.280962
v -21.797646 -10.577627 0.009398
v -21.988338 -10.577627 0.500000
v -22.179018 -10.577627 -0.290360
v -9.924306 -9.672729 0.009398
v -9.779125 -9.672729 0.500000
v -9.380410 -9.746574 -0.290360
v -22.561905 -17.160177 0.009398
v -22.752594 -17.160177 0.500000
v -22.943281 -17.160177 -0.290360
v -10.506174 -15.190622 0.009398
v -10.360995 -15.190622 0.500000
v -10.043510 -15.190622 -0.290360
v -20.526098 -22.714767 0.009398
v -20.716789 -22.714767 0.500000
v -20.907476 -22.714767 -0.290360
v -8.956214 -19.846819 0.009398
v -8.811033 -19.846819 0.500000
v -8.369350 -19.612850 -0.290360
v -17.324965 -27.150227 0.009398
v -17.515654 -27.150227 0.500000
v -17.706341 -27.150227 -0.290360
v -6.519034 -23.564890 0.009398
v -6.373854 -23.564890 0.500000
v -5.921864 -23.379927 -0.290360
v -13.422419 -32.407867 0.009398
v -13.613108 -32.407867 0.500000
v -13.803794 -32.407867 -0.290360
v -3.547834 -27.972168 0.009398
v -3.402655 -27.972168 0.500000
v -2.796400 -27.892912 -0.290360
v -10.077379 -38.399734 0.009398
v -10.268065 -38.399734 0.500000
v -10.458755 -38.399734 -0.290360
v -1.001092 -32.994911 0.009398
v -0.855912 -32.994911 0.500000
v -0.444445 -32.669624 -0.290360
v -5.590999 -44.855747 0.009398
v -5.781686 -44.855747 0.500000
v -5.797704 -45.349255 -0.290360
v 1.814727 -36.573494 0.039573
v 2.045723 -36.361092 0.500000
v 2.298211 -35.919838 -0.290360
v 2.008707 -49.082237 0.009398
v 2.257766 -49.342148 0.500000
v 2.197388 -49.830112 -0.290360
v 6.451343 -37.925224 0.009398
v 6.163350 -37.612850 0.500000
v 6.488971 -37.288712 -0.290360
v 9.144794 -51.310192 0.009398
v 9.393851 -51.570107 0.299758
v 9.214256 -51.916679 -0.290360
v 16.726883 -49.993675 0.009398
v 16.975943 -50.253586 0.299758
v 16.978384 -50.400223 -0.290360
v 21.769220 -45.191746 0.009398
v 22.018276 -45.451653 0.500000
v 22.072895 -45.606777 -0.290360
v 25.832823 -39.343353 0.009398
v 26.081879 -39.603260 0.500000
v 26.336035 -39.758385 -0.290360
v 10.356349 -38.179897 0.009398
v 10.068356 -37.867523 0.500000
v 10.234483 -37.547138 -0.290360
v 13.242657 -36.057613 0.009398
v 12.954663 -35.745239 0.500000
v 12.865870 -35.536411 -0.290360
v 14.600921 -32.152611 0.009398
v 14.438464 -31.872234 0.500000
v 14.174518 -31.589907 -0.290360
v 28.501728 -31.904902 0.009398
v 29.004606 -32.007946 0.500000
v 29.013460 -32.007946 -0.290360
v 16.015778 -26.210213 0.009398
v 15.725322 -26.124296 0.500000
v 15.313070 -26.055767 -0.290360
v 26.566879 -22.064749 0.009398
v 27.146246 -22.049641 0.500000
v 27.554720 -22.260691 -0.290360
v 13.554367 -20.431005 0.009398
v 13.110297 -20.238407 0.500000
v 13.032200 -20.528097 -0.290360
v 19.729998 -11.895205 0.009398
v 20.309359 -11.880093 0.500000
v 20.892601 -11.850595 -0.290360
v 6.852687 -13.116059 0.009398
v 6.568351 -13.195921 0.500000
v 6.278568 -13.235052 -0.290360
v 17.166658 -3.714776 0.009397
v 17.721964 -3.838574 0.500000
v 18.378256 -3.873497 -0.290360
v 4.561260 -2.581115 0.009397
v 4.196695 -2.552691 0.500000
v 3.985267 -2.515848 -0.290360
v 22.106346 4.041742 0.009397
v 22.710844 3.931593 0.500000
v 23.124685 3.874673 -0.280962
v 7.557432 5.665000 0.009397
v 7.178511 5.702995 0.500000
v 6.696008 5.772600 -0.290360
v 27.469503 10.904459 -0.152154
v 27.838751 10.900989 0.500000
v 28.212164 10.897598 -0.442514
v 12.725857 11.067934 -0.055959
v 12.293143 11.102356 0.500000
v 11.849543 11.074615 -0.290360
v 28.918058 19.916004 -0.152154
v 29.381941 20.013468 0.500000
v 29.725904 20.021143 -0.442514
v 16.631107 17.213428 -0.015695
v 16.343117 17.205807 0.500000
v 15.944872 17.239548 -0.290360
v 28.207876 28.141310 0.000000
v 28.590652 28.079458 0.500000
v 28.992392 28.348747 -0.280963
v 16.076088 23.790407 0.000000
v 15.731066 23.794876 0.500000
v 15.463212 23.837040 -0.290360
v -14.098036 26.632309 0.009398
v -14.288726 26.632309 0.500000
v -14.479412 26.632309 -0.280962
v -1.871085 19.558746 0.000000
v -1.725905 19.558746 0.500000
v -1.463804 19.398748 -0.280962
v -8.615888 33.299313 0.009398
v -8.806574 33.299313 0.500000
v -8.997264 33.299313 -0.280962
v 1.374013 23.780489 0.000000
v 1.519193 23.780489 0.500000
v 1.989820 23.806997 -0.322177
v -3.520876 37.785297 0.000000
v -3.789016 37.847118 0.500000
v -4.390143 37.971561 -0.280962
v 5.062128 27.164686 0.000000
v 5.190044 27.004902 0.500000
v 5.426174 26.937405 -0.290360
v 5.611858 41.804337 0.000000
v 5.320932 42.043663 0.500000
v 5.076042 42.397533 -0.288915
v 10.147374 29.475164 0.000000
v 10.220875 29.202431 0.500000
v 10.167903 28.828747 -0.290360
v 14.028911 26.888041 0.000000
v 13.855192 26.645115 0.500000
v 13.631890 26.372290 -0.290360
v 25.509857 35.217056 0.000000
v 25.939396 35.337360 0.500000
v 26.341141 35.606651 -0.280963
v 21.202080 41.403130 0.000000
v 21.436798 41.679279 0.500000
v 21.658440 42.150063 -0.154844
v 11.984284 43.542763 0.000000
v 11.860024 43.844456 0.500000
v 11.688861 44.253342 -0.154843
vn -0.9589 0.0000 0.2838
vn -0.9711 -0.0273 0.2371
vn 0.9317 0.0262 0.3622
vn 0.9560 0.0000 0.2932
vn -0.9376 0.2618 0.2289
vn -0.9317 0.2363 0.2757
vn 0.9020 -0.2519 0.3506
vn 0.8831 -0.2463 0.3994
vn 0.8507 -0.4086 0.3307
vn 0.8658 -0.3777 0.3282
vn -0.8803 0.4229 0.2149
vn -0.8846 0.3859 0.2618
vn -0.8333 0.4947 0.2466
vn 0.7960 -0.5203 0.3094
vn 0.7954 -0.4810 0.3687
vn -0.8201 0.5360 0.2002
vn 0.8896 -0.3157 0.3302
vn -0.9712 0.0214 0.2371
vn -0.8996 0.3462 0.2662
vn 0.9319 -0.0205 0.3622
vn -0.9540 0.1006 0.2823
vn 0.9267 -0.1076 0.3602
vn 0.8836 -0.1076 0.4558
vn -0.9660 0.1122 0.2330
vn 0.8866 0.2951 0.3561
vn -0.9157 -0.3356 0.2209
vn -0.9135 -0.3041 0.2703
vn 0.8820 0.3233 0.3428
vn -0.8118 -0.5322 0.2402
vn 0.7734 0.5582 0.3006
vn 0.7077 0.4639 0.5328
vn -0.7958 -0.5743 0.1920
vn 0.7094 0.4783 0.5176
vn -0.7883 -0.5851 0.1902
vn -0.8053 -0.5429 0.2383
vn 0.7665 0.5689 0.2979
vn -0.8624 -0.4373 0.2552
vn 0.8268 0.4616 0.3214
vn 0.7206 0.3654 0.5893
vn -0.8544 -0.4770 0.2061
vn 0.6369 0.5374 0.5528
vn -0.8055 -0.5598 0.1944
vn -0.7663 -0.6011 0.2268
vn 0.7823 0.5436 0.3041
vn -0.2508 -0.8250 0.5064
vn 0.4776 0.8588 0.1856
vn 0.2464 0.8106 0.5313
vn -0.4261 -0.7635 0.4854
vn -0.2406 -0.8176 0.5232
vn 0.2809 0.8997 0.3341
vn 0.1702 -0.8715 0.4600
vn -0.1192 0.6868 0.7170
vn 0.6740 -0.7163 0.1808
vn -0.4330 0.4546 0.7784
vn 0.7965 -0.5806 0.1690
vn -0.6667 0.4632 0.5839
vn 0.0597 0.9147 0.3997
vn -0.0559 -0.8568 0.5127
vn -0.5807 0.7897 0.1981
vn 0.4490 -0.6106 0.6524
vn -0.9158 0.3508 0.1956
vn 0.7507 -0.2611 0.6069
vn 0.8856 -0.2109 0.4138
vn -0.7775 0.2992 0.5532
vn -0.9048 0.2026 0.3745
vn 0.8870 -0.3064 0.3454
vn 0.8307 0.3538 0.4298
vn -0.7059 -0.1317 0.6959
vn -0.8433 -0.3480 0.4097
vn 0.9889 0.1480 0.0111
vn -0.6974 -0.6479 0.3064
vn 0.8087 0.5175 0.2797
vn 0.6841 0.6267 0.3732
vn -0.5876 -0.3951 0.7061
vn 0.8376 0.1822 0.5151
vn -0.6297 -0.2026 0.7499
vn -0.9158 -0.2041 0.3459
vn 0.7758 0.2445 0.5816
vn -0.9179 0.3002 0.2595
vn 0.6820 -0.4379 0.5857
vn 0.7638 -0.2759 0.5835
vn -0.5701 0.3631 0.7370
vn 0.6187 -0.5861 0.5232
vn -0.5223 0.4255 0.7390
vn -0.6416 0.6236 0.4466
vn 0.7290 -0.5364 0.4254
vn 0.9182 -0.1555 0.3643
vn 0.6881 -0.4566 0.5639
vn -0.8615 0.1385 0.4885
vn -0.7601 0.5050 0.4089
vn -0.8067 -0.0791 0.5856
vn -0.8914 -0.0828 0.4456
vn 0.9352 0.0917 0.3420
vn 0.8703 0.0723 0.4871
vn 0.9209 -0.1543 0.3579
vn 0.9240 -0.2361 0.3008
vn -0.9330 0.2308 0.2761
vn -0.9588 0.1607 0.2341
vn 0.7384 -0.5676 0.3641
vn -0.7590 0.6241 0.1853
vn -0.7726 0.5939 0.2243
vn 0.7398 -0.6083 0.2875
vn -0.6634 0.7230 0.1926
vn 0.6498 -0.7169 0.2526
vn 0.6222 -0.7083 0.3333
vn -0.7015 0.6917 0.1713
vn 0.3927 -0.8990 0.1941
vn -0.3830 0.8199 0.4255
vn -0.3845 0.8463 0.3688
vn 0.3965 -0.8608 0.3191
vn -0.5296 -0.7526 0.3913
vn 0.5198 0.7798 0.3490
vn -0.7444 -0.5377 0.3959
vn 0.7297 0.4802 0.4868
vn 0.8049 0.2940 0.5154
vn -0.7779 -0.2842 0.5604
vn 0.6933 0.4922 0.5264
vn -0.6244 -0.4433 0.6431
vn -0.2486 0.8526 0.4596
vn 0.2261 -0.8209 0.5245
vn 0.1803 0.8548 0.4866
vn -0.1945 -0.8605 0.4709
vn 0.9139 0.0119 0.4058
vn 0.9155 -0.2322 0.3285
vn 0.8562 -0.3641 0.3664
vn -0.8803 0.4229 0.2150
vn 0.8135 -0.4829 0.3240
vn 0.8333 -0.3207 0.4503
vn -0.9719 0.0211 0.2345
vn 0.9235 -0.0974 0.3710
vn -0.9660 0.1122 0.2331
vn 0.7922 0.2999 0.5315
vn 0.7168 0.4657 0.5189
vn 0.6774 0.4691 0.5666
vn 0.7526 0.3706 0.5443
vn 0.6476 0.5583 0.5186
vn -0.7802 -0.5233 0.3426
vn -0.6260 -0.5396 0.5630
vn -0.2529 -0.8765 0.4097
vn 0.4764 0.8537 0.2104
vn 0.2757 0.8441 0.4598
vn -0.4237 -0.7559 0.4991
vn -0.2390 -0.8038 0.5448
vn 0.2704 0.8210 0.5029
vn 0.1661 -0.9568 0.2384
vn 0.6736 -0.7151 0.1869
vn -0.5682 0.5720 0.5915
vn 0.7687 -0.5341 0.3520
vn 0.0635 0.9202 0.3864
vn -0.0559 -0.8567 0.5127
vn -0.5850 0.7655 0.2680
vn 0.4490 -0.6106 0.6523
vn -0.8722 0.2892 0.3946
vn 0.8306 -0.3182 0.4569
vn 0.8309 -0.1860 0.5245
vn -0.6538 0.2346 0.7194
vn -0.8660 0.1782 0.4672
vn 0.9332 -0.3591 0.0105
vn 0.7600 0.3377 0.5553
vn -0.6392 -0.1257 0.7587
vn -0.8888 -0.3949 0.2326
vn 0.8934 0.1667 0.4172
vn -0.7023 -0.6503 0.2897
vn 0.7011 0.4714 0.5350
vn 0.6459 0.6000 0.4720
vn 0.7948 0.1771 0.5804
vn -0.6732 -0.2109 0.7087
vn -0.9483 -0.2029 0.2442
vn 0.7517 0.2419 0.6135
vn -0.8050 0.2908 0.5171
vn 0.7655 -0.4695 0.4399
vn 0.7510 -0.2729 0.6012
vn -0.5499 0.3531 0.7569
vn 0.6206 -0.5874 0.5194
vn -0.7320 0.5386 0.4173
vn -0.6779 0.6421 0.3579
vn 0.7737 -0.5534 0.3085
vn 0.9286 -0.1541 0.3376
vn 0.7648 -0.4887 0.4199
vn -0.8167 0.1383 0.5603
vn -0.7617 0.5054 0.4054
vn -0.7962 -0.0798 0.5997
vn -0.9459 -0.0691 0.3169
vn 0.8774 0.0681 0.4748
vn 0.8210 0.0763 0.5658
vn 0.9091 -0.2244 0.3511
vn -0.9344 0.2307 0.2713
vn 0.7245 -0.5639 0.3965
vn -0.6108 0.6954 0.3785
vn 0.6036 -0.6847 0.4084
vn 0.6498 -0.7159 0.2553
vn -0.5669 0.6255 0.5361
vn 0.3423 -0.8581 0.3828
vn -0.3686 0.8001 0.4733
vn -0.3494 0.8000 0.4877
vn 0.3342 -0.7595 0.5580
vn -0.5285 -0.7453 0.4066
vn 0.4941 0.7021 0.5128
vn -0.8097 -0.5329 0.2460
vn 0.7246 0.4788 0.4957
vn -0.6985 -0.2664 0.6642
vn 0.6747 0.4719 0.5676
vn -0.6720 -0.4680 0.5739
vn -0.2204 0.8004 0.5574
vn 0.2209 -0.8098 0.5435
vn 0.1742 0.7706 0.6130
vn -0.1901 -0.8189 0.5415
vn -0.0000 -0.0000 -1.0000
vn 0.0000 0.0000 1.0000
vn 0.0002 0.0021 -1.0000
vn -0.0034 0.0057 1.0000
vn -0.0014 -0.0024 1.0000
vn 0.0005 -0.0005 -1.0000
vn 0.0012 0.0109 0.9999
vn 0.0064 -0.0106 0.9999
vn -0.0092 0.0061 -0.9999
vn -0.0109 -0.0008 -0.9999
vn 0.0114 -0.0014 0.9999
vn 0.0006 0.0015 1.0000
vn 0.0005 -0.0004 1.0000
vn 0.0014 0.0005 1.0000
vn -0.0020 0.0020 -1.0000
vn -0.0009 0.0001 -1.0000
vn -0.0087 0.0130 -0.9999
vn -0.0001 0.0014 -1.0000
vn -0.0023 -0.0016 1.0000
vn 0.0058 -0.0023 1.0000
vn 0.0007 0.0008 -1.0000
vn -0.0095 -0.0161 -0.9998
vn 0.0067 0.0183 0.9998
vn 0.0115 -0.0019 0.9999
vn -0.0114 0.0019 -0.9999
vn -0.0056 0.0189 -0.9998
vn 0.0064 -0.0179 0.9998
vn 0.0007 -0.0001 1.0000
vn -0.0071 -0.0038 -1.0000
vn 0.0047 0.0050 -1.0000
vn -0.0000 0.0001 -1.0000
vn 0.0006 0.0002 -1.0000
vn 0.0045 0.0063 -1.0000
vn 0.0005 0.0004 -1.0000
vn 0.0018 0.0086 -1.0000
vn 0.0183 0.0070 -0.9998
usemtl bord
s off
f 10//1 8//1 7//1
f 2//2 6//2 5//2
f 1//3 5//3 4//3
f 11//4 9//4 8//4
f 6//5 14//5 5//5
f 10//6 17//6 11//6
f 5//7 13//7 4//7
f 11//8 18//8 12//8
f 14//9 19//9 13//9
f 23//10 18//10 17//10
f 15//11 20//11 14//11
f 16//12 23//12 17//12
f 22//13 29//13 23//13
f 20//14 25//14 19//14
f 23//15 30//15 24//15
f 21//16 26//16 20//16
f 29//17 36//17 30//17
f 27//18 32//18 26//18
f 28//19 35//19 29//19
f 26//20 31//20 25//20
f 34//21 41//21 35//21
f 32//22 37//22 31//22
f 35//23 42//23 36//23
f 33//24 38//24 32//24
f 47//25 42//25 41//25
f 45//26 38//26 39//26
f 46//27 41//27 40//27
f 44//28 37//28 38//28
f 52//29 47//29 46//29
f 50//30 43//30 44//30
f 53//31 48//31 47//31
f 51//32 44//32 45//32
f 59//33 54//33 53//33
f 57//34 50//34 51//34
f 58//35 53//35 52//35
f 56//36 49//36 50//36
f 64//37 59//37 58//37
f 62//38 55//38 56//38
f 65//39 60//39 59//39
f 63//40 56//40 57//40
f 65//41 72//41 66//41
f 63//42 68//42 62//42
f 70//43 65//43 64//43
f 68//44 61//44 62//44
f 70//45 77//45 71//45
f 68//46 73//46 67//46
f 77//47 72//47 71//47
f 69//48 74//48 68//48
f 75//49 80//49 74//49
f 74//50 79//50 73//50
f 84//51 80//51 81//51
f 80//52 82//52 79//52
f 87//53 83//53 84//53
f 83//54 85//54 82//54
f 90//55 86//55 87//55
f 89//56 85//56 86//56
f 92//57 78//57 77//57
f 76//58 92//58 77//58
f 95//59 93//59 92//59
f 91//60 95//60 92//60
f 98//61 96//61 95//61
f 97//62 95//62 94//62
f 103//63 98//63 97//63
f 101//64 88//64 89//64
f 104//65 99//65 98//65
f 102//66 89//66 90//66
f 109//67 104//67 103//67
f 107//68 100//68 101//68
f 104//69 111//69 105//69
f 108//70 101//70 102//70
f 116//71 111//71 110//71
f 114//72 107//72 108//72
f 115//73 110//73 109//73
f 113//74 106//74 107//74
f 121//75 116//75 115//75
f 119//76 112//76 113//76
f 122//77 117//77 116//77
f 120//78 113//78 114//78
f 122//79 129//79 123//79
f 120//80 125//80 119//80
f 121//81 128//81 122//81
f 119//82 124//82 118//82
f 127//83 134//83 128//83
f 125//84 130//84 124//84
f 128//85 135//85 129//85
f 126//86 131//86 125//86
f 132//87 137//87 131//87
f 133//88 140//88 134//88
f 131//89 136//89 130//89
f 134//90 141//90 135//90
f 143//91 136//91 137//91
f 146//92 141//92 140//92
f 138//93 143//93 137//93
f 145//94 140//94 139//94
f 1//95 149//95 2//95
f 153//96 8//96 9//96
f 8//97 151//97 7//97
f 2//98 150//98 3//98
f 153//99 158//99 152//99
f 149//100 156//100 150//100
f 152//101 157//101 151//101
f 148//102 155//102 149//102
f 158//103 163//103 157//103
f 154//104 161//104 155//104
f 159//105 164//105 158//105
f 155//106 162//106 156//106
f 165//107 170//107 164//107
f 161//108 168//108 162//108
f 164//109 169//109 163//109
f 160//110 167//110 161//110
f 171//111 173//111 170//111
f 170//112 172//112 169//112
f 147//113 173//113 174//113
f 146//114 172//114 173//114
f 144//115 176//115 143//115
f 176//116 142//116 143//116
f 177//117 179//117 176//117
f 179//118 175//118 176//118
f 167//119 183//119 168//119
f 166//120 182//120 167//120
f 182//121 180//121 183//121
f 181//122 179//122 182//122
f 10//1 11//1 8//1
f 2//2 3//2 6//2
f 1//3 2//3 5//3
f 11//123 12//123 9//123
f 6//5 15//5 14//5
f 10//6 16//6 17//6
f 5//7 14//7 13//7
f 11//124 17//124 18//124
f 14//9 20//9 19//9
f 23//125 24//125 18//125
f 15//126 21//126 20//126
f 16//12 22//12 23//12
f 22//13 28//13 29//13
f 20//14 26//14 25//14
f 23//127 29//127 30//127
f 21//16 27//16 26//16
f 29//128 35//128 36//128
f 27//129 33//129 32//129
f 28//19 34//19 35//19
f 26//20 32//20 31//20
f 34//21 40//21 41//21
f 32//22 38//22 37//22
f 35//130 41//130 42//130
f 33//131 39//131 38//131
f 47//132 48//132 42//132
f 45//26 44//26 38//26
f 46//27 47//27 41//27
f 44//28 43//28 37//28
f 52//29 53//29 47//29
f 50//30 49//30 43//30
f 53//133 54//133 48//133
f 51//32 50//32 44//32
f 59//134 60//134 54//134
f 57//34 56//34 50//34
f 58//35 59//35 53//35
f 56//36 55//36 49//36
f 64//37 65//37 59//37
f 62//38 61//38 55//38
f 65//135 66//135 60//135
f 63//40 62//40 56//40
f 65//136 71//136 72//136
f 63//137 69//137 68//137
f 70//138 71//138 65//138
f 68//44 67//44 61//44
f 70//139 76//139 77//139
f 68//140 74//140 73//140
f 77//141 78//141 72//141
f 69//142 75//142 74//142
f 75//143 81//143 80//143
f 74//144 80//144 79//144
f 84//145 83//145 80//145
f 80//52 83//52 82//52
f 87//146 86//146 83//146
f 83//147 86//147 85//147
f 90//148 89//148 86//148
f 89//56 88//56 85//56
f 92//149 93//149 78//149
f 76//150 91//150 92//150
f 95//151 96//151 93//151
f 91//152 94//152 95//152
f 98//153 99//153 96//153
f 97//154 98//154 95//154
f 103//155 104//155 98//155
f 101//156 100//156 88//156
f 104//157 105//157 99//157
f 102//158 101//158 89//158
f 109//159 110//159 104//159
f 107//160 106//160 100//160
f 104//161 110//161 111//161
f 108//162 107//162 101//162
f 116//163 117//163 111//163
f 114//164 113//164 107//164
f 115//165 116//165 110//165
f 113//74 112//74 106//74
f 121//166 122//166 116//166
f 119//167 118//167 112//167
f 122//168 123//168 117//168
f 120//169 119//169 113//169
f 122//170 128//170 129//170
f 120//171 126//171 125//171
f 121//172 127//172 128//172
f 119//173 125//173 124//173
f 127//174 133//174 134//174
f 125//175 131//175 130//175
f 128//176 134//176 135//176
f 126//177 132//177 131//177
f 132//178 138//178 137//178
f 133//179 139//179 140//179
f 131//180 137//180 136//180
f 134//181 140//181 141//181
f 143//182 142//182 136//182
f 146//183 147//183 141//183
f 138//184 144//184 143//184
f 145//185 146//185 140//185
f 1//95 148//95 149//95
f 153//186 152//186 8//186
f 8//187 152//187 151//187
f 2//98 149//98 150//98
f 153//188 159//188 158//188
f 149//100 155//100 156//100
f 152//101 158//101 157//101
f 148//102 154//102 155//102
f 158//189 164//189 163//189
f 154//190 160//190 161//190
f 159//191 165//191 164//191
f 155//192 161//192 162//192
f 165//193 171//193 170//193
f 161//194 167//194 168//194
f 164//195 170//195 169//195
f 160//196 166//196 167//196
f 171//197 174//197 173//197
f 170//198 173//198 172//198
f 147//199 146//199 173//199
f 146//200 145//200 172//200
f 144//115 177//115 176//115
f 176//201 175//201 142//201
f 177//202 180//202 179//202
f 179//203 178//203 175//203
f 167//204 182//204 183//204
f 166//205 181//205 182//205
f 182//206 179//206 180//206
f 181//207 178//207 179//207
usemtl Sol
f 6//208 9//208 12//208
f 7//209 4//209 10//209
f 18//208 6//208 12//208
f 13//209 10//209 4//209
f 13//209 22//209 16//209
f 24//208 15//208 18//208
f 19//209 28//209 22//209
f 30//208 21//208 24//208
f 25//209 34//209 28//209
f 36//210 27//210 30//210
f 42//208 33//208 36//208
f 31//209 40//209 34//209
f 43//209 40//209 37//209
f 42//208 45//208 39//208
f 48//208 51//208 45//208
f 49//209 46//209 43//209
f 55//209 52//209 49//209
f 54//208 57//208 51//208
f 60//208 63//208 57//208
f 61//209 58//209 55//209
f 61//211 70//211 64//211
f 72//208 63//208 66//208
f 73//212 70//212 67//212
f 72//208 75//208 69//208
f 76//209 79//209 91//209
f 82//209 91//209 79//209
f 88//209 97//209 94//209
f 87//208 93//208 96//208
f 100//209 97//209 88//209
f 99//208 102//208 90//208
f 106//209 103//209 100//209
f 105//208 108//208 102//208
f 111//208 114//208 108//208
f 112//209 109//209 106//209
f 118//209 115//209 112//209
f 117//208 120//208 114//208
f 118//209 127//209 121//209
f 129//208 120//208 123//208
f 135//213 126//213 129//213
f 124//214 133//214 127//214
f 130//215 139//215 133//215
f 141//216 132//216 135//216
f 147//217 138//217 141//217
f 136//218 145//218 139//218
f 151//219 1//219 7//219
f 3//208 153//208 9//208
f 156//208 153//208 150//208
f 151//220 154//220 148//220
f 157//221 160//221 154//221
f 162//222 159//222 156//222
f 168//223 165//223 162//223
f 163//209 166//209 160//209
f 142//209 172//209 145//209
f 172//209 178//209 169//209
f 169//209 181//209 166//209
f 174//224 180//224 177//224
f 6//208 3//208 9//208
f 7//209 1//209 4//209
f 18//208 15//208 6//208
f 13//209 16//209 10//209
f 13//209 19//209 22//209
f 24//208 21//208 15//208
f 19//209 25//209 28//209
f 30//208 27//208 21//208
f 25//209 31//209 34//209
f 36//225 33//225 27//225
f 42//208 39//208 33//208
f 31//209 37//209 40//209
f 43//209 46//209 40//209
f 42//208 48//208 45//208
f 48//208 54//208 51//208
f 49//209 52//209 46//209
f 55//209 58//209 52//209
f 54//208 60//208 57//208
f 60//208 66//208 63//208
f 61//209 64//209 58//209
f 61//226 67//226 70//226
f 72//208 69//208 63//208
f 73//227 76//227 70//227
f 72//208 78//208 75//208
f 76//209 73//209 79//209
f 82//209 94//209 91//209
f 94//209 82//209 85//209
f 85//209 88//209 94//209
f 75//208 78//208 81//208
f 96//208 99//208 90//208
f 78//208 93//208 81//208
f 84//208 81//208 93//208
f 90//208 87//208 96//208
f 93//208 87//208 84//208
f 100//209 103//209 97//209
f 99//208 105//208 102//208
f 106//209 109//209 103//209
f 105//208 111//208 108//208
f 111//208 117//208 114//208
f 112//209 115//209 109//209
f 118//209 121//209 115//209
f 117//208 123//208 120//208
f 118//209 124//209 127//209
f 129//228 126//228 120//228
f 135//229 132//229 126//229
f 124//230 130//230 133//230
f 130//231 136//231 139//231
f 141//232 138//232 132//232
f 147//233 144//233 138//233
f 136//234 142//234 145//234
f 151//235 148//235 1//235
f 3//208 150//208 153//208
f 156//236 159//236 153//236
f 151//220 157//220 154//220
f 157//209 163//209 160//209
f 162//237 165//237 159//237
f 168//238 171//238 165//238
f 163//209 169//209 166//209
f 142//209 175//209 172//209
f 172//209 175//209 178//209
f 169//209 178//209 181//209
f 177//239 144//239 147//239
f 174//240 171//240 180//240
f 177//241 147//241 174//241
f 183//242 180//242 171//242
f 171//243 168//243 183//243
